<svg width="55" height="55" viewBox="0 0 55 55" fill="none" xmlns="http://www.w3.org/2000/svg">
<rect width="55" height="55" rx="20" fill="#DCFAF8"/>
<path d="M39.3716 28.0972C38.938 28.0453 38.5444 28.3551 38.4925 28.7889C37.8424 34.2357 33.2035 38.3434 27.7021 38.3434C22.754 38.3434 18.5046 35.0205 17.2264 30.3894L18.1727 30.9092C18.5557 31.1195 19.0367 30.9794 19.2468 30.5967C19.4571 30.2137 19.3172 29.7328 18.9343 29.5224L16.5069 28.1893C16.1244 27.9792 15.6438 28.1186 15.4333 28.5009L14.0982 30.9252C13.8875 31.308 14.027 31.7889 14.4095 31.9997C14.8046 32.1845 15.2561 32.0936 15.4839 31.6884L15.7933 31.1267C17.3607 36.2682 22.1471 39.9254 27.7021 39.9254C34.0041 39.9254 39.3183 35.2183 40.0631 28.9764C40.1151 28.5425 39.8052 28.1489 39.3716 28.0972Z" fill="#16DBCC"/>
<path d="M40.5214 21.8097C40.1206 21.6369 39.655 21.8216 39.482 22.2229L39.2327 22.8005C38.4539 20.8961 37.2039 19.192 35.5939 17.8726C33.3772 16.0555 30.5745 15.0551 27.702 15.0551C24.8295 15.0551 22.0268 16.0555 19.8099 17.8726C17.6237 19.6643 16.1002 22.165 15.5201 24.9138C15.4299 25.3412 15.7035 25.7608 16.1309 25.851C16.5577 25.9412 16.9779 25.6679 17.0679 25.2405C17.5741 22.8425 18.9039 20.6605 20.8127 19.096C22.7473 17.5103 25.1941 16.6371 27.702 16.6371C30.2097 16.6371 32.6565 17.5103 34.5912 19.096C36.0782 20.3146 37.2136 21.9084 37.8823 23.6869L36.8807 23.2562C36.4795 23.0837 36.0141 23.2689 35.8415 23.6702C35.6689 24.0715 35.8543 24.5366 36.2556 24.7092L38.7999 25.8036C39.2329 25.9826 39.6546 25.7997 39.839 25.3902L40.9346 22.8491C41.1077 22.4481 40.9227 21.9827 40.5214 21.8097Z" fill="#16DBCC"/>
<path d="M32.5772 21.6711C32.8042 21.2132 32.839 20.6941 32.6756 20.2098C32.5123 19.7255 32.1701 19.3339 31.7122 19.1069C30.7667 18.6385 29.6167 19.0266 29.148 19.9719C29.0457 20.1787 28.9826 20.3979 28.9591 20.6208C28.3482 20.5645 27.7271 20.6214 27.1252 20.7946C25.9272 21.139 24.9081 21.914 24.256 22.9763L22.1201 26.455C21.8348 26.404 21.5398 26.4252 21.2576 26.5203C20.8161 26.6693 20.4592 26.9811 20.2525 27.3983L20.1116 27.6823C19.6848 28.5438 20.0383 29.5921 20.9 30.0189L25.5236 32.3099C25.0684 33.257 25.2723 34.3214 26.4539 34.9159C27.4898 35.3415 28.6429 34.9245 29.0908 34.0775L29.5796 34.3195C29.8239 34.4407 30.0871 34.5018 30.352 34.5018C30.5397 34.5018 30.7282 34.4712 30.9111 34.4094C31.3523 34.2606 31.7093 33.9488 31.9161 33.5314L32.0568 33.2474C32.2636 32.83 32.2956 32.3573 32.1466 31.9158C32.0515 31.6336 31.8896 31.386 31.6762 31.1899L33.1502 27.3834C33.6003 26.2208 33.5995 24.9406 33.148 23.7788C32.9212 23.195 32.5901 22.6665 32.1755 22.2143C32.3384 22.0606 32.4748 21.8779 32.5772 21.6711ZM30.8613 20.4871C31.0448 20.4871 31.1935 20.6358 31.1935 20.8191C31.1935 21.0027 31.0448 21.1512 30.8613 21.1512C30.6779 21.1512 30.5292 21.0025 30.5292 20.8191C30.5292 20.6358 30.6779 20.4871 30.8613 20.4871ZM27.4696 33.5195C27.3658 33.5547 27.2546 33.5471 27.1563 33.4985C27.0581 33.4499 26.9847 33.3658 26.9497 33.262C26.9223 33.1808 26.9213 33.0949 26.9454 33.0146L27.6692 33.3732C27.6196 33.441 27.5508 33.4923 27.4696 33.5195ZM31.6749 26.8122L30.0692 30.9584C29.8433 31.4707 30.0593 32.0771 30.5659 32.3284H30.5661C30.6487 32.3725 30.679 32.4632 30.6394 32.5451L30.4985 32.8292C30.4513 32.9116 30.3673 32.9386 30.282 32.9021L21.6024 28.6015C21.5225 28.5619 21.4895 28.4647 21.5291 28.385L21.67 28.1009C21.7081 28.0307 21.782 27.9808 21.8867 28.0278C22.139 28.1528 22.4249 28.172 22.6919 28.0822C22.9438 27.9971 23.1504 27.8243 23.2779 27.5929L25.604 23.8041C26.0491 23.0791 26.7447 22.5501 27.5625 22.3148C28.3801 22.0796 29.2504 22.1581 30.0126 22.5359C30.0128 22.5359 30.0128 22.5359 30.013 22.5361C30.0132 22.5361 30.0132 22.5361 30.0134 22.5363C30.7758 22.9141 31.3653 23.5588 31.6735 24.3519C31.9816 25.1449 31.9821 26.0187 31.6749 26.8122Z" fill="#16DBCC"/>
</svg>
