<svg width="55" height="55" viewBox="0 0 55 55" fill="none" xmlns="http://www.w3.org/2000/svg">
<rect width="55" height="55" rx="20" fill="#E7EDFF"/>
<g clip-path="url(#clip0_5002_1983)">
<path d="M19.209 36.5226C19.6135 36.5226 19.9414 36.1947 19.9414 35.7902C19.9414 35.3857 19.6135 35.0577 19.209 35.0577C18.8045 35.0577 18.4766 35.3857 18.4766 35.7902C18.4766 36.1947 18.8045 36.5226 19.209 36.5226Z" fill="#396AFF"/>
<path d="M34.8336 27.0366C36.127 26.8463 37.3005 26.2558 38.2274 25.329C39.1098 24.4467 39.6905 23.3328 39.9069 22.1078C40.1182 20.9114 39.9696 19.6944 39.4772 18.5886C39.2683 18.1195 38.6529 18.0057 38.2902 18.3686L35.2898 21.3689C35.1659 21.4927 34.9645 21.4927 34.8406 21.3689L33.6308 20.1592C33.5072 20.0355 33.5072 19.8344 33.6308 19.7107L36.6315 16.71C36.9947 16.347 36.8803 15.7318 36.4116 15.5231C35.3057 15.0306 34.0887 14.882 32.8922 15.0933C31.6672 15.3096 30.5533 15.8904 29.6709 16.7728C28.7441 17.6996 28.1535 18.8731 27.9632 20.1665C27.8062 21.2339 27.9315 22.3018 28.3254 23.2884L26.1283 25.0932L21.2219 20.1869L22.0851 19.3238C22.3944 19.0145 22.3652 18.5037 22.0219 18.2318L18.701 15.6015C18.4096 15.3707 17.9913 15.3949 17.7284 15.6578L15.6568 17.7293C15.3939 17.9922 15.3696 18.4104 15.6005 18.7019L18.2309 22.0226C18.5028 22.3659 19.0133 22.3954 19.323 22.0858L20.1861 21.2226L24.991 26.0273L15.9719 33.4358C14.7711 34.3855 14.6675 36.1723 15.7498 37.2545L17.7449 39.2496C18.8271 40.3316 20.6138 40.2284 21.5638 39.0275L28.9725 30.0087L29.7168 30.753L28.6462 31.8234C28.3711 32.0985 28.3591 32.5407 28.6189 32.8303L34.2002 39.0527C35.2979 40.2709 37.1914 40.3216 38.3521 39.1609L39.1606 38.3523C40.3237 37.1893 40.2686 35.2821 39.0393 34.1883C39.0387 34.1879 39.0382 34.1874 39.0378 34.187L32.7867 28.6558C32.4968 28.3993 32.0572 28.4126 31.7834 28.6864L30.7525 29.7172L29.9067 28.8715L31.7115 26.6745C32.6982 27.0683 33.7661 27.1936 34.8336 27.0366ZM18.8686 20.4686L17.1538 18.3037L18.3028 17.1548L20.4678 18.8695L18.8686 20.4686ZM32.332 30.2093L38.0661 35.2831C38.3565 35.5416 38.5227 35.898 38.534 36.2867C38.5454 36.6757 38.4001 37.0414 38.1249 37.3166L37.3164 38.1251C37.0424 38.3991 36.6782 38.5447 36.2913 38.5343C35.9041 38.5242 35.548 38.3602 35.2897 38.0734L30.1726 32.3686L32.332 30.2093ZM30.9371 25.3096L28.3517 28.4568C28.3513 28.4572 28.351 28.4577 28.3506 28.458L20.4273 38.1034C20.4239 38.1075 20.4205 38.1117 20.4172 38.1159C20.0112 38.6329 19.2466 38.6797 18.7807 38.2138L16.7856 36.2187C16.3208 35.754 16.3654 34.9893 16.8836 34.5824C16.8878 34.5791 16.8919 34.5757 16.8961 34.5723L26.5419 26.6491C26.5421 26.6488 26.5424 26.6486 26.5427 26.6484L29.6902 24.0629C29.9575 23.8434 30.0347 23.4669 29.8756 23.1599C28.9525 21.3792 29.2865 19.2287 30.7066 17.8085C31.5813 16.934 32.7653 16.4692 33.9626 16.4692C34.2206 16.4692 34.4792 16.4908 34.7355 16.5345L32.5949 18.6749C31.9003 19.3697 31.9003 20.5001 32.595 21.1949L33.8048 22.4046C34.4997 23.0995 35.6306 23.0996 36.3255 22.4046L38.4656 20.2646C38.7122 21.71 38.2546 23.2303 37.1916 24.2932C35.7713 25.7134 33.6208 26.0473 31.84 25.1243C31.5331 24.9651 31.1565 25.0424 30.9371 25.3096Z" fill="#396AFF"/>
</g>
<defs>
<clipPath id="clip0_5002_1983">
<rect width="25" height="25" fill="white" transform="translate(15 15)"/>
</clipPath>
</defs>
</svg>
